<svg width="56" height="56" viewBox="0 0 56 56" fill="none" xmlns="http://www.w3.org/2000/svg">
<rect x="4" y="4" width="48" height="48" rx="24" fill="#D1FADF"/>
<rect x="4" y="4" width="48" height="48" rx="24" stroke="#ECFDF3" stroke-width="8"/>
<path d="M36 35V32H23C21.3431 32 20 33.3431 20 35M24.8 38H32.8C33.9201 38 34.4802 38 34.908 37.782C35.2843 37.5903 35.5903 37.2843 35.782 36.908C36 36.4802 36 35.9201 36 34.8V21.2C36 20.0799 36 19.5198 35.782 19.092C35.5903 18.7157 35.2843 18.4097 34.908 18.218C34.4802 18 33.9201 18 32.8 18H24.8C23.1198 18 22.2798 18 21.638 18.327C21.0735 18.6146 20.6146 19.0735 20.327 19.638C20 20.2798 20 21.1198 20 22.8V33.2C20 34.8802 20 35.7202 20.327 36.362C20.6146 36.9265 21.0735 37.3854 21.638 37.673C22.2798 38 23.1198 38 24.8 38Z" stroke="#039855" stroke-width="2" stroke-linecap="round" stroke-linejoin="round"/>
</svg>
